<?xml version="1.0" standalone="no"?>
<!DOCTYPE svg PUBLIC "-//W3C//DTD SVG 20010904//EN"
 "http://www.w3.org/TR/2001/REC-SVG-20010904/DTD/svg10.dtd">
<svg version="1.0" xmlns="http://www.w3.org/2000/svg"
 width="1040.000000pt" height="362.000000pt" viewBox="0 0 1040.000000 362.000000"
 preserveAspectRatio="xMidYMid meet">

<g transform="translate(0.000000,362.000000) scale(0.100000,-0.100000)"
fill="#000000" stroke="none">
<path d="M0 2915 l0 -705 102 51 c217 109 581 260 846 350 810 278 1599 406
2280 371 583 -31 932 -96 1929 -358 935 -246 1351 -299 1878 -238 385 45 715
130 1475 379 906 297 1203 365 1535 352 133 -5 262 -29 314 -57 11 -5 24 -10
30 -10 8 0 11 90 11 285 l0 285 -5200 0 -5200 0 0 -705z"/>
</g>
</svg>
